<svg width="98" height="132" viewBox="0 0 98 132" fill="none" xmlns="http://www.w3.org/2000/svg">
<path d="M53.5002 100.687C53.5002 100.687 45.8477 100.687 30.8957 100.687C4.42402 100.687 -5.38445 123.033 2.81747 123.722C2.81747 123.722 29.3633 125.536 30.7314 127.221C34.4005 131.74 36.4663 130.548 36.4663 130.548C36.7708 129.176 36.7499 114.817 37.8214 113.909C38.4676 113.362 46.1281 111.037 46.9354 110.798C54.7748 108.489 55.097 111.625 58.4568 111.801C59.2399 111.841 60.0649 111.835 60.7546 111.841C61.4491 111.848 61.8584 111.069 61.4555 110.505C59.5106 107.774 57.0871 101.488 53.5002 100.687Z" fill="url(#paint0_linear_8_262)"/>
<path d="M64.5349 108.178C63.6583 107.3 61.9921 106.129 60.2647 105.055C59.1722 105.102 57.7993 104.92 56.6472 104.783C54.2945 104.504 51.552 104.018 49.6087 102.524C49.5361 102.97 49.5023 103.446 49.5023 103.917C49.5023 104.857 49.4362 105.36 50.4772 106.097C55.7077 109.806 56.4506 110.293 57.4061 110.851C58.4874 111.482 59.9215 112.39 62.9186 111.753C64.696 111.192 64.8152 110.488 64.7846 109.94C64.7685 109.647 64.8894 108.531 64.5349 108.178Z" fill="#AAB4BF"/>
<path d="M64.2771 107.533C63.3698 106.689 60.6514 104.567 59.1835 103.304C58.3987 102.628 57.7494 102.035 57.3352 101.085C57.3046 101.016 57.2788 100.95 57.2579 100.892C56.7245 99.3886 52.6026 98.8016 50.6706 99.6466C49.7634 100.043 49.5023 101.538 49.5023 102.94C49.5023 103.88 49.5507 104.268 50.59 105.005C55.8205 108.715 57.2337 109.526 58.2167 110.034C59.1641 110.522 60.1584 110.988 62.3257 110.669C63.0621 110.561 63.7791 110.259 64.3157 109.745C64.7911 109.292 65.0521 108.252 64.2771 107.533Z" fill="#F6F7F8"/>
<path d="M33.7301 130.684C35.7911 132.306 40.6542 132.793 41.8176 130.013C42.3591 128.72 40.2224 120.274 40.0081 117.826C39.9468 117.126 39.8421 115.896 39.8421 115.896C39.6455 115.664 38.9139 115.522 38.6336 115.406C37.4363 114.909 35.3399 115.522 34.046 115.522C33.3853 115.522 33.0646 119.955 33.034 120.395C32.8487 123.09 32.1252 129.421 33.7301 130.684Z" fill="#AAB4BF"/>
<path d="M33.6173 129.232C35.6783 130.855 40.5414 131.342 41.7048 128.563C42.2463 127.27 40.2965 118.834 40.0838 116.386C40.0226 115.686 39.9178 114.456 39.9178 114.456C39.7212 114.225 38.8028 114.073 38.5224 113.957C37.3251 113.461 35.2287 114.073 33.9332 114.073C33.2741 114.073 32.9518 118.507 32.9212 118.947C32.7359 121.637 32.0124 127.968 33.6173 129.232Z" fill="#F6F7F8"/>
<path d="M61.0336 52.4361C56.6136 49.3302 42.6784 51.6427 39.7505 54.4649C37.9071 56.2404 37.0047 62.1943 36.9193 63.6796C36.4746 71.488 37.4059 73.1959 37.4156 80.9173C37.4172 82.38 37.414 83.8475 37.2593 85.3021C36.987 87.8549 36.2441 90.3271 35.3257 92.7154C33.5789 97.2615 32.575 110.582 32.7104 115.436C32.9134 118.4 40.8333 117.755 40.7931 116.055C42.6171 104.035 44.177 101.924 45.7174 95.0151C45.9801 93.8378 46.1751 92.6413 46.5296 91.4882C46.8583 90.419 47.3208 89.395 47.6575 88.329C48.3375 86.181 48.6227 84.1893 48.9515 81.9606C49.3543 79.2272 49.928 74.5908 50.2406 71.5155L50.811 82.3896C50.4484 83.8846 50.1181 86.0165 49.8796 87.5356C49.4478 90.2916 49.957 93.5572 49.8152 96.3423C49.6991 98.6 49.4123 100.456 49.4365 100.795C49.5686 102.638 56.7183 103.88 57.885 101.359C58.3539 95.0216 58.8196 93.9282 59.9749 86.7744C60.1715 85.5585 60.4293 83.5556 60.4696 82.3251C60.5373 80.2416 61.5879 78.3596 61.9682 76.3293C63.0462 70.5673 64.1887 54.6535 61.0336 52.4361Z" fill="#1A2B45"/>
<path d="M81.4156 47.7754C80.4923 47.4223 79.2129 46.7337 78.8535 46.4756C75.2215 43.876 67.3499 36.6304 67.3499 36.6304C66.9761 36.2901 63.0443 24.9854 63.0443 24.9854L54.1849 23.913C56.0622 29.6556 60.819 40.604 61.4893 41.4296C62.888 43.1536 70.447 47.4771 76.061 49.9928C76.2721 50.088 76.4252 50.2541 76.5041 50.4702C76.6669 50.9218 76.9473 51.7361 77.0858 52.3441C77.7401 54.0293 78.5216 53.881 78.5216 53.881C79.0872 53.6584 84.1679 51.133 85.428 50.3718C85.3361 50.3138 81.4156 47.7754 81.4156 47.7754Z" fill="#FBBD9E"/>
<path d="M66.5298 30.5136C65.5049 25.8772 63.8339 21.5891 61.4845 18.7944C60.0891 17.135 57.0146 16.3754 53.9094 16.7544C50.4675 17.1737 53.2166 22.4067 53.953 26.1529L57.2289 33.4551C58.2666 36.1547 66.9084 32.1488 66.5298 30.5136Z" fill="#3E71CC"/>
<path d="M36.4808 24.2146C36.4341 24.2646 36.3857 24.3146 36.3406 24.3662C34.8178 26.0208 35.9055 34.8097 36.9707 36.6191C38.4144 39.0671 39.8131 42.0651 39.536 47.311C39.2669 52.4119 38.6723 52.9941 38.0068 57.6014C36.8192 65.8292 63.7534 65.2519 62.7479 55.2727C62.7479 55.2727 62.0002 45.9984 62.0276 40.7588C62.0534 35.9112 62.3515 28.8978 62.6802 24.9258C62.7946 23.5421 62.6721 22.1327 62.1549 20.8458C59.0353 13.0905 47.1272 17.8446 40.6607 21.1344C39.1057 21.923 37.6797 22.9454 36.4808 24.2146Z" fill="#3E71CC"/>
<path opacity="0.6" d="M38.1469 56.6757C42.4896 50.3525 42.6281 42.2682 41.0425 30.9296C39.8469 29.4815 38.9816 29.0283 38.0405 28.7009C38.0422 31.5908 37.9439 34.4662 37.4782 37.3351C37.4717 37.3786 37.4459 37.4045 37.4363 37.4448C38.6964 39.7509 39.7841 42.6327 39.5359 47.3078C39.2845 52.0458 38.7544 52.8908 38.1469 56.6757Z" fill="#235B9E"/>
<path d="M57.229 19.1428C59.8797 26.8981 48.331 29.6896 44.96 21.8956C43.3695 18.2188 55.9334 15.3515 57.229 19.1428Z" fill="#FBBD9E"/>
<path d="M56.9275 20.7522C57.5818 18.9009 58.3842 17.0979 58.3262 15.6949C54.9504 15.274 51.162 15.3434 48.2084 14.0258L46.5648 19.3202C46.4407 19.7201 46.4036 20.1394 46.4794 20.5522C46.821 22.4149 48.5145 25.0999 51.7034 25.0999C55.3951 25.0999 56.3184 22.4793 56.9275 20.7522Z" fill="#F1A782"/>
<path d="M61.578 10.6747C61.4282 8.8492 60.9335 7.03981 60.0021 5.45618C58.5954 3.06622 56.6923 1.96637 53.9401 1.83897C53.194 1.80349 51.9694 2.45821 51.2668 2.7114C48.6532 3.65641 48.1665 7.99285 48.0602 10.4489C47.9264 13.5468 48.0505 16.9173 50.0679 19.3331C52.6687 22.4455 55.9881 24.7677 57.8847 24.2549C59.0772 23.9324 59.4623 22.0907 59.7974 20.7248L60.4629 20.1894C60.4952 17.3882 59.8941 17.5237 60.9383 15.803C61.7827 14.4048 61.7053 12.2374 61.578 10.6747Z" fill="#FBBD9E"/>
<path d="M60.5452 3.96924C57.6947 0.980987 53.8209 0.62947 51.1187 2.25825C44.2091 3.89349 44.28 11.8922 48.418 17.0753C47.9861 15.7046 49.7941 14.9563 50.0648 15.3853C50.7964 16.5367 51.0252 18.0075 51.7535 18.1687C52.2853 18.2864 52.5399 17.6881 52.838 17.0463C53.1667 16.3399 53.5744 15.7578 54.2061 15.2998C56.628 13.5404 59.377 14.9692 61.7167 13.0824C63.0429 12.0132 63.5408 7.10747 60.5452 3.96924Z" fill="#383231"/>
<path d="M49.5555 14.6127C48.3921 13.2775 46.3167 14.9853 49.6184 18.7025C49.9519 19.0782 50.3854 19.454 50.8189 19.1911C51.7663 18.617 50.2355 15.3933 49.5555 14.6127Z" fill="#FBBD9E"/>
<path d="M97.776 46.0306L76.4349 50.9267L66.3783 59.7141L66.6007 60.2237L87.9434 55.326L97.776 46.0306Z" fill="#3E3635"/>
<path d="M95.3395 48.1819L91.0726 51.8926L88.1399 52.5619L92.4052 48.8495L95.3395 48.1819Z" fill="#CFCFC7"/>
<path d="M95.1769 46.8531L86.1129 54.7374L67.6545 59.0819L76.7169 51.1976L95.1769 46.8531Z" fill="#F9F9F2"/>
<path d="M89.8416 51.8539L89.6515 51.4249L92.1362 50.3719L91.5706 51.4588L89.8416 51.8539Z" fill="#BCBCB3"/>
<path d="M91.5705 51.4587L91.3788 51.0314L93.8925 48.8447L94.0827 49.272L91.5705 51.4587Z" fill="#E5E5DA"/>
<path d="M93.8926 48.8447L91.3789 51.0314L89.6515 51.4249L92.1636 49.2381L93.8926 48.8447Z" fill="#CFCFC7"/>
<path d="M97.7761 46.0306L87.7195 54.818L87.9435 55.326L98.0001 46.5386L97.7761 46.0306Z" fill="#625654"/>
<path d="M85.7326 49.4719C84.2421 48.8413 84.2582 48.7333 83.3639 47.964C82.6468 47.3464 80.6809 47.3835 79.8785 47.1851C79.7818 47.4899 80.3361 49.0703 80.1669 49.9363C81.2514 49.7605 82.2875 49.7331 83.3784 50.2024C85.7713 51.2345 86.6253 49.8492 85.7326 49.4719Z" fill="#FBBD9E"/>
<path d="M71.103 54.3326L70.3295 52.7586C70.2811 52.6618 69.9669 52.2796 69.8703 52.2167C69.5818 52.0265 69.4352 52.4022 69.245 52.6909C69.0549 52.9795 69.1355 53.3682 69.4239 53.5585L70.8886 54.5245C70.9321 54.5519 70.9885 54.5583 71.0369 54.5342C71.1094 54.4954 71.1384 54.4068 71.103 54.3326Z" fill="#3E3635"/>
<path d="M69.7185 51.8216C69.7185 51.8216 68.3521 48.806 67.0098 48.6544C66.6666 48.6157 63.0893 48.8156 63.0893 48.8156C58.3648 47.1078 49.3459 45.113 48.4403 43.7906C47.5331 42.4682 45.5672 34.7888 45.5672 34.7888C45.3046 33.7615 44.8566 32.7068 44.0735 33.4212C42.1253 35.1951 40.1385 36.89 37.8632 38.0366C37.2928 38.3237 37.0527 38.9816 37.354 39.5444C39.0685 42.7423 42.6313 49.2542 43.6481 49.701C47.4509 51.3781 57.6558 52.1877 60.5595 52.5876C60.9333 52.6392 61.2927 52.7666 61.6117 52.9682C63.1216 53.9213 64.2576 54.9808 65.0117 54.9808C66.4072 54.9808 69.2416 54.0148 69.5542 53.3553C69.928 52.5715 69.7185 51.8216 69.7185 51.8216Z" fill="#FBBD9E"/>
<path d="M48.02 37.6787C45.5659 29.6154 42.9425 18.1816 36.4809 24.213C32.9584 27.5012 35.2611 35.7322 37.5605 41.8442C38.8722 44.1116 48.9288 40.6637 48.02 37.6787Z" fill="#3E71CC"/>
<path d="M69.5689 51.7329L65.5936 47.2206C65.3729 46.9707 64.991 46.9481 64.7412 47.1674C64.4915 47.3884 64.4673 47.7706 64.688 48.0205L68.4071 52.2408C68.7068 52.6408 69.9347 52.1392 69.5689 51.7329Z" fill="#3E3635"/>
<path d="M65.8274 52.3345C66.5461 52.9344 68.7215 53.2231 70.0235 52.7086C70.9323 52.349 70.444 51.2685 69.9091 51.2169C68.9696 51.125 67.7708 50.9621 67.7708 50.9621C67.7708 50.9621 65.4278 50.4219 65.0636 50.4057C64.1355 50.3654 65.3553 51.9394 65.8274 52.3345Z" fill="#FBBD9E"/>
<path d="M59.5579 31.5167C58.9226 31.8392 58.9532 32.9052 59.0129 33.2761L60.1659 32.4988C60.1659 31.7634 59.8805 31.3522 59.5579 31.5167Z" fill="#382B36"/>
<path d="M61.7601 34.6469L57.3546 37.4948V34.0857L61.7601 31.2377V34.6469Z" fill="white"/>
<path d="M61.098 32.7569L58.0154 34.755V34.3163L61.098 32.3182V32.7569ZM60.1198 33.9696L58.0379 35.3258V35.7645L60.1198 34.4082V33.9696Z" fill="#BAB7B5"/>
<path d="M54.5621 15.0643C56.9259 15.54 61.636 13.7645 61.9309 13.321C63.7566 10.5779 63.7324 3.59188 56.5892 0.768119C55.0841 0.173048 53.4518 -0.170454 51.8549 0.0859582C49.0205 0.543953 46.3859 2.59847 45.6463 7.46063C45.4852 9.72803 52.4866 14.6482 54.5621 15.0643Z" fill="#EBECEF"/>
<path d="M56.9324 3.09037C56.855 3.42741 56.3265 3.59348 55.7512 3.46125C55.176 3.32901 54.7715 2.95008 54.8473 2.61304C54.9246 2.27599 55.4531 2.10987 56.0284 2.24211C56.6053 2.37435 57.0097 2.75494 56.9324 3.09037Z" fill="#3E71CC"/>
<path d="M62.6577 11.6632L62.0776 13.0807C59.9473 14.4983 55.3195 15.1191 52.2159 14.0257C52.2159 14.0257 54.6765 17.2123 58.8564 18.1816C63.0364 19.1524 66.3606 16.6592 62.6577 11.6632Z" fill="#3E71CC"/>
<path d="M84.0615 113.59C82.9689 113.253 81.9506 113.307 80.3343 113.309C79.5013 113.304 78.0768 113.435 76.5283 113.756C72.5804 114.151 69.3174 115.194 66.9776 116.065C64.9376 116.844 63.0571 117.747 61.4345 118.689C61.3297 118.663 61.2121 118.648 61.0703 118.648L58.4293 118.65C57.9539 118.652 57.2884 118.794 56.5311 119.079C54.9696 119.669 53.6145 120.647 53.5049 121.261C53.4485 121.577 53.7321 121.737 54.2332 121.735L56.8727 121.734C57.0096 121.734 57.1659 121.717 57.3319 121.693C56.4714 122.553 55.9284 123.377 55.793 124.102C55.6126 125.07 56.1202 126.197 59.0867 126.6C59.7731 126.913 60.7964 127.131 63.6308 127.029C64.4687 126.997 65.3372 126.899 66.1945 126.749L75.1376 126.734C76.1061 127.036 77.2018 127.036 78.9824 127.015C79.5206 127.004 80.0395 126.975 80.7146 126.894C81.111 127.031 83.2074 127.017 83.8504 127.008L92.9837 113.577L84.0615 113.59Z" fill="url(#paint1_linear_8_262)"/>
<path d="M71.4767 118.679C71.6797 121.329 73.0413 123.403 75.634 125.007C78.5377 126.805 84.0841 127.939 89.3984 126.178C91.7865 125.388 95.7682 123.365 96.1566 118.637L71.4767 118.679Z" fill="url(#paint2_linear_8_262)"/>
<path d="M70.9143 117.773C70.961 118.573 71.1012 121.006 74.664 123.211C82.0683 127.792 96.4949 125.196 96.7157 117.581L70.9143 117.773Z" fill="#B9CEE3"/>
<path d="M96.7124 116.205L70.9094 116.281L70.9126 117.657C70.9175 119.514 72.1099 121.372 74.5044 122.814C79.4368 125.784 87.6049 125.868 92.7468 122.999C95.3927 121.522 96.7221 119.552 96.7173 117.582L96.7124 116.205Z" fill="url(#paint3_linear_8_262)"/>
<path d="M92.9612 110.653C88.003 107.707 80.2957 107.627 75.0346 110.467C73.5328 111.279 71.0013 113.111 70.9078 116.281C70.9127 118.139 72.1051 119.997 74.4996 121.438C79.432 124.409 87.6001 124.493 92.7404 121.624C95.3863 120.147 96.7157 118.176 96.7092 116.115C96.5642 113.335 94.7337 111.793 92.9612 110.653Z" fill="url(#paint4_linear_8_262)"/>
<path d="M71.4395 113.989L71.4507 115.689C71.462 117.465 72.6045 119.239 74.891 120.616C79.6172 123.462 87.4404 123.541 92.3664 120.793C94.8947 119.382 96.1677 117.5 96.1693 115.618L96.1709 113.918L71.4395 113.989Z" fill="url(#paint5_linear_8_262)"/>
<path d="M70.9028 113.477C70.9463 114.278 71.0817 116.718 74.6525 118.926C82.0568 123.507 96.4835 120.913 96.7042 113.298L70.9028 113.477Z" fill="#B9CEE4"/>
<path d="M96.6995 111.924L70.8965 111.999L70.8997 113.375C70.9045 115.233 72.097 117.091 74.4915 118.532C79.4239 121.503 87.592 121.587 92.7339 118.718C95.3798 117.241 96.7092 115.27 96.7043 113.301L96.6995 111.924Z" fill="url(#paint6_linear_8_262)"/>
<path d="M92.9498 106.37C87.9916 103.423 80.2844 103.344 75.0232 106.184C73.5214 106.995 70.9899 108.827 70.8965 111.998C70.9013 113.856 72.0937 115.713 74.4882 117.155C79.4207 120.126 87.5887 120.21 92.729 117.341C95.3749 115.863 96.7043 113.893 96.6979 111.832C96.5512 109.053 94.7207 107.511 92.9498 106.37Z" fill="url(#paint7_linear_8_262)"/>
<path d="M96.1306 100.104L71.4008 100.177L71.4378 111.396C71.4443 113.175 72.5867 114.954 74.8781 116.336C79.6043 119.182 87.4275 119.261 92.3535 116.513C94.8882 115.099 96.1612 113.212 96.1564 111.325L96.1306 100.104Z" fill="url(#paint8_linear_8_262)"/>
<path d="M70.9577 99.6867C70.9061 99.6867 70.8659 99.7287 70.8691 99.7803C70.9239 100.662 71.1801 103.001 74.6139 105.125C81.9876 109.687 96.3224 107.132 96.6624 99.5916C96.664 99.54 96.6221 99.4965 96.5706 99.4965L70.9577 99.6867Z" fill="#B9CEE4"/>
<path d="M96.6608 98.1193L70.8578 98.1951L70.861 99.5707C70.8658 101.428 72.0583 103.286 74.4528 104.728C79.3852 107.698 87.5533 107.782 92.6952 104.913C95.3411 103.436 96.6705 101.466 96.6656 99.4965L96.6608 98.1193Z" fill="url(#paint9_linear_8_262)"/>
<path d="M92.9111 92.5685C87.9545 89.6238 80.2473 89.5448 74.9845 92.3831C73.4827 93.1926 70.9512 95.0246 70.8578 98.1951C70.8626 100.053 72.055 101.911 74.4495 103.352C79.382 106.323 87.5501 106.407 92.6903 103.538C95.3362 102.061 96.6656 100.09 96.6592 98.0274C96.5125 95.2504 94.682 93.7087 92.9111 92.5685Z" fill="url(#paint10_linear_8_262)"/>
<path d="M91.4817 89.6384C87.1487 87.0807 80.7966 87.0033 76.3782 89.4561C74.1658 90.6834 71.507 93.0895 71.399 97.5888C71.4039 99.3691 72.5464 101.148 74.8393 102.53C79.5655 105.376 87.3888 105.455 92.3147 102.707C94.8494 101.293 96.1224 99.4046 96.1176 97.421C95.9371 92.9975 93.4685 90.8721 91.4817 89.6384Z" fill="url(#paint11_linear_8_262)"/>
<path d="M90.5859 89.4126C86.9619 87.2291 80.9612 87.1695 77.1841 89.2772C73.407 91.3849 73.2829 94.8634 76.9069 97.047C79.1129 98.3758 82.2003 98.9176 85.1298 98.6645C86.8507 98.5145 88.5169 98.0904 89.9188 97.3905C90.0509 97.3244 90.1815 97.255 90.3088 97.184C94.0842 95.0747 94.2099 91.5962 90.5859 89.4126Z" fill="url(#paint12_linear_8_262)"/>
<path d="M85.8258 90.8624L84.0114 91.5332L85.2666 98.6499C86.9376 98.4902 88.5538 98.0726 89.9187 97.3904C90.0508 97.3243 90.1813 97.2549 90.3086 97.184L85.8258 90.8624Z" fill="#F3F9FF"/>
<path d="M77.6578 92.3476H83.8084L83.5312 89.0981H80.3649C78.9291 89.0965 76.0383 92.3476 77.6578 92.3476Z" fill="#C1D5E9"/>
<path d="M86.5397 86.4986L80.9127 86.5147L80.9143 90.7463C80.9159 91.1511 81.1754 91.5575 81.6975 91.872C82.7739 92.5203 84.5544 92.538 85.676 91.9123C86.2528 91.5897 86.5429 91.1608 86.5413 90.7302L86.5397 86.4986Z" fill="url(#paint13_linear_8_262)"/>
<path d="M85.7566 85.3729C84.6802 84.7246 82.8997 84.7069 81.7782 85.3326C80.6566 85.9583 80.6196 86.9904 81.696 87.6387C82.7724 88.287 84.5529 88.3047 85.6745 87.679C86.796 87.0533 86.833 86.0212 85.7566 85.3729Z" fill="#ABBCCB"/>
<path d="M86.6268 85.202L80.8274 85.2182L80.8306 87.5517C80.8322 87.9693 81.0997 88.387 81.6379 88.7112C82.7466 89.3788 84.5819 89.3982 85.7373 88.7531C86.3319 88.4209 86.6316 87.979 86.63 87.5355L86.6268 85.202Z" fill="url(#paint14_linear_8_262)"/>
<path d="M85.8194 84.0425C84.7108 83.3748 82.8755 83.3555 81.7201 84.0006C81.1255 84.3328 80.8274 84.7746 80.8274 85.2181C80.829 85.6358 81.0965 86.0535 81.6347 86.3776C82.7433 87.0453 84.5787 87.0646 85.734 86.4195C86.261 86.126 86.5558 85.7454 86.6155 85.3536C86.6864 84.8859 86.4221 84.4053 85.8194 84.0425Z" fill="url(#paint15_linear_8_262)"/>
<path d="M85.5164 84.0247C84.5673 83.4538 82.9978 83.4378 82.0101 83.9893C81.0223 84.5408 80.9901 85.4503 81.9376 86.0228C82.8867 86.5937 84.4561 86.6098 85.4439 86.0583C86.4317 85.5052 86.4639 84.5956 85.5164 84.0247Z" fill="url(#paint16_linear_8_262)"/>
<path d="M83.1188 86.8033C82.247 86.6904 81.198 86.2953 80.9225 85.6454C81.1755 86.3743 82.2615 86.7855 83.1059 86.9049C84.9848 87.1226 86.261 86.3179 86.5123 85.6712C86.2062 86.3227 84.872 86.9839 83.1188 86.8033Z" fill="url(#paint17_linear_8_262)"/>
<path opacity="0.2" d="M85.5165 84.0248C85.4827 84.0038 85.4424 83.9893 85.4069 83.9716C86.2191 84.5328 86.1546 85.3698 85.2281 85.8874C84.2612 86.4277 82.7256 86.4115 81.7991 85.8535C81.6379 85.7568 81.509 85.6503 81.4059 85.5375C81.5203 85.7132 81.6975 85.8793 81.936 86.0229C82.8851 86.5937 84.4546 86.6099 85.4424 86.0583C86.4318 85.5052 86.464 84.5956 85.5165 84.0248Z" fill="url(#paint18_linear_8_262)"/>
<path opacity="0.3" d="M74.9831 93.0588C70.3423 95.5617 68.8953 100.687 74.4481 104.031C82.4373 108.843 96.6851 105.597 96.6626 98.7047C96.2871 91.6316 83.1753 88.6401 74.9831 93.0588Z" fill="#40C5FF"/>
<path d="M96.7126 116.205C96.7077 116.175 96.7109 116.144 96.7109 116.113C96.6852 115.617 96.603 115.162 96.4789 114.74C96.5079 114.638 96.5353 114.535 96.5579 114.43C96.6626 113.975 96.7045 113.636 96.7029 113.298L96.6997 111.924C96.6948 111.893 96.6981 111.863 96.6981 111.832C96.6546 110.993 96.4547 110.271 96.1518 109.634L96.1341 101.754C96.3033 101.387 96.437 101.003 96.5272 100.603C96.611 100.271 96.6545 99.9337 96.661 99.5983C96.6626 99.5596 96.6658 99.5273 96.6658 99.4951L96.6626 98.6436C96.6852 105.599 82.4357 108.844 74.4481 104.031C72.0198 102.569 70.9305 100.767 70.8612 98.9919L70.8628 99.5692C70.8628 99.6386 70.8677 99.7063 70.8709 99.7741C70.8773 99.8918 70.8805 99.9337 70.8838 99.9773C70.9224 100.414 71.0304 101.075 71.4058 101.846L71.4316 109.737C71.1239 110.4 70.9208 111.15 70.8967 111.996L70.8999 113.372C70.8999 113.406 70.9031 113.44 70.9047 113.474C70.9047 113.525 70.9079 113.582 70.9128 113.646C70.916 113.693 70.9192 113.74 70.9241 113.786C70.9498 114.065 71.003 114.433 71.1335 114.86C71.0078 115.301 70.924 115.772 70.9095 116.28L70.9128 117.655C70.9128 117.694 70.916 117.733 70.9176 117.771C70.9176 117.82 70.9208 117.876 70.9241 117.936C70.9273 117.979 70.9305 118.021 70.9353 118.065C70.9869 118.637 71.1545 119.594 71.8909 120.679C72.4968 122.401 73.7327 123.83 75.6325 125.006C78.5362 126.804 84.0826 127.937 89.3969 126.176C91.4143 125.509 94.5694 123.962 95.7344 120.647C96.126 120.052 96.4112 119.405 96.5708 118.708C96.6755 118.253 96.7174 117.916 96.7158 117.578L96.7126 116.205Z" fill="url(#paint19_linear_8_262)"/>
<path d="M86.2481 91.4575C86.1079 91.6219 85.9194 91.7768 85.6777 91.9122C85.2426 92.1541 84.7076 92.2977 84.1549 92.3476L85.2668 98.6483C86.9378 98.4887 88.554 98.071 89.9188 97.3888C90.0509 97.3227 90.1815 97.2534 90.3088 97.1824L86.2481 91.4575Z" fill="#F3F9FF"/>
<path opacity="0.3" d="M92.8467 112.488C87.9997 109.589 80.0282 109.508 75.041 112.307C72.5063 113.731 71.2317 115.625 71.2252 117.523C71.2623 118.616 71.4605 119.626 71.8102 120.553C71.8376 120.595 71.8601 120.637 71.8891 120.68C72.0245 121.066 72.1969 121.435 72.3967 121.793C72.4644 121.911 72.5337 122.027 72.6078 122.141C72.632 122.18 72.6561 122.217 72.6819 122.254C72.7995 122.428 72.922 122.601 73.0541 122.767C73.1895 122.94 73.3281 123.098 73.4715 123.254C73.5102 123.294 73.5472 123.336 73.5859 123.377C73.6842 123.48 73.7873 123.581 73.8921 123.681C74.0306 123.812 74.1708 123.943 74.3223 124.069C74.7268 124.406 75.1586 124.714 75.6323 125.007C78.536 126.805 84.0824 127.939 89.3967 126.178C90.6456 125.765 92.3278 125.014 93.7056 123.717C93.7394 123.685 93.7716 123.654 93.8039 123.622C93.8909 123.536 93.9763 123.449 94.0601 123.361C94.1165 123.299 94.1745 123.238 94.2309 123.175C94.3211 123.074 94.4114 122.97 94.4968 122.862C94.5177 122.836 94.537 122.812 94.558 122.786C95.0382 122.172 95.4459 121.464 95.7327 120.65C95.7987 120.548 95.8584 120.443 95.918 120.34C96.2016 119.535 96.3869 118.629 96.4062 117.594C96.4143 115.757 95.2299 113.914 92.8467 112.488Z" fill="#5CB9F0"/>
<path opacity="0.2" d="M90.0557 124.607C86.5042 126.602 80.8274 126.544 77.3774 124.48C73.9258 122.416 74.0064 119.124 77.5579 117.131C81.1093 115.136 86.7862 115.194 90.2362 117.258C93.6862 119.323 93.6056 122.612 90.0557 124.607Z" fill="#40C5FF"/>
<g opacity="0.5">
<path d="M95.8213 95.2956C95.9792 95.939 96.0855 96.6438 96.1162 97.4211C96.1226 99.4046 94.8496 101.291 92.3133 102.707C87.3873 105.455 79.5641 105.376 74.8379 102.53C72.5449 101.148 71.4024 99.3692 71.3976 97.5888C71.4169 96.7889 71.5201 96.0568 71.6844 95.3843C71.2155 96.1729 70.89 97.1018 70.8578 98.1952C70.8626 100.053 72.055 101.911 74.4495 103.352C79.382 106.323 87.5501 106.407 92.6903 103.538C95.3362 102.061 96.6656 100.09 96.6592 98.0274C96.6028 96.9453 96.2869 96.0519 95.8213 95.2956Z" fill="url(#paint20_linear_8_262)"/>
<path d="M96.1532 109.634L96.1564 111.322C96.1613 113.209 94.8883 115.096 92.3536 116.51C87.4276 119.258 79.6044 119.179 74.8782 116.333C72.5852 114.952 71.4427 113.173 71.4379 111.393L71.4315 109.737C71.1237 110.4 70.9207 111.15 70.8965 111.998C70.9013 113.856 72.0937 115.713 74.4882 117.155C79.4207 120.126 87.5887 120.21 92.729 117.341C95.3749 115.863 96.7043 113.893 96.6979 111.832C96.6544 110.993 96.4546 110.269 96.1532 109.634Z" fill="url(#paint21_linear_8_262)"/>
<path d="M96.469 114.726C96.3884 115.005 96.2885 115.276 96.1693 115.539C96.1676 117.499 94.8947 119.381 92.3664 120.792C87.4404 123.54 79.6172 123.461 74.891 120.614C72.6028 119.237 71.462 117.463 71.4507 115.688C71.3121 115.378 71.2122 115.112 71.1365 114.864C71.0092 115.304 70.9254 115.771 70.9109 116.279C70.9157 118.137 72.1081 119.995 74.5027 121.437C79.4351 124.407 87.6032 124.491 92.7435 121.622C95.3893 120.145 96.7187 118.174 96.7123 116.113C96.6849 115.61 96.5963 115.154 96.469 114.726Z" fill="url(#paint22_linear_8_262)"/>
</g>
<defs>
<linearGradient id="paint0_linear_8_262" x1="-0.000668324" y1="115.689" x2="61.6133" y2="115.689" gradientUnits="userSpaceOnUse">
<stop stop-color="#E1E9EF"/>
<stop offset="1" stop-color="#C5D2DB"/>
</linearGradient>
<linearGradient id="paint1_linear_8_262" x1="56.3596" y1="120.181" x2="79.1273" y2="120.181" gradientUnits="userSpaceOnUse">
<stop stop-color="#E1E9EF"/>
<stop offset="1" stop-color="#C5D2DB"/>
</linearGradient>
<linearGradient id="paint2_linear_8_262" x1="80.892" y1="125.57" x2="91.109" y2="103.524" gradientUnits="userSpaceOnUse">
<stop stop-color="#B8CDE3"/>
<stop offset="1" stop-color="#DFEDFB"/>
</linearGradient>
<linearGradient id="paint3_linear_8_262" x1="70.9096" y1="120.652" x2="96.7165" y2="120.652" gradientUnits="userSpaceOnUse">
<stop stop-color="#B8CDE3"/>
<stop offset="1" stop-color="#DFEDFB"/>
</linearGradient>
<linearGradient id="paint4_linear_8_262" x1="70.9096" y1="116.056" x2="96.7115" y2="116.056" gradientUnits="userSpaceOnUse">
<stop stop-color="#D7EBFF"/>
<stop offset="1" stop-color="#EDF6FF"/>
</linearGradient>
<linearGradient id="paint5_linear_8_262" x1="71.4393" y1="118.36" x2="96.1696" y2="118.36" gradientUnits="userSpaceOnUse">
<stop stop-color="#B8CDE3"/>
<stop offset="1" stop-color="#DFEDFB"/>
</linearGradient>
<linearGradient id="paint6_linear_8_262" x1="70.8973" y1="116.369" x2="96.7042" y2="116.369" gradientUnits="userSpaceOnUse">
<stop stop-color="#B8CDE3"/>
<stop offset="1" stop-color="#DFEDFB"/>
</linearGradient>
<linearGradient id="paint7_linear_8_262" x1="70.8973" y1="111.774" x2="96.6992" y2="111.774" gradientUnits="userSpaceOnUse">
<stop stop-color="#D7EBFF"/>
<stop offset="1" stop-color="#EDF6FF"/>
</linearGradient>
<linearGradient id="paint8_linear_8_262" x1="71.4001" y1="109.312" x2="96.1564" y2="109.312" gradientUnits="userSpaceOnUse">
<stop stop-color="#B8CDE3"/>
<stop offset="1" stop-color="#DFEDFB"/>
</linearGradient>
<linearGradient id="paint9_linear_8_262" x1="70.8583" y1="102.566" x2="96.6651" y2="102.566" gradientUnits="userSpaceOnUse">
<stop stop-color="#B8CDE3"/>
<stop offset="1" stop-color="#DFEDFB"/>
</linearGradient>
<linearGradient id="paint10_linear_8_262" x1="70.8583" y1="97.9712" x2="96.6602" y2="97.9712" gradientUnits="userSpaceOnUse">
<stop stop-color="#D7EBFF"/>
<stop offset="1" stop-color="#EDF6FF"/>
</linearGradient>
<linearGradient id="paint11_linear_8_262" x1="71.3986" y1="96.1927" x2="96.1163" y2="96.1927" gradientUnits="userSpaceOnUse">
<stop stop-color="#B8CDE3"/>
<stop offset="1" stop-color="#DFEDFB"/>
</linearGradient>
<linearGradient id="paint12_linear_8_262" x1="74.2675" y1="93.23" x2="93.2241" y2="93.23" gradientUnits="userSpaceOnUse">
<stop stop-color="#D7EBFF"/>
<stop offset="1" stop-color="#EDF6FF"/>
</linearGradient>
<linearGradient id="paint13_linear_8_262" x1="80.913" y1="89.434" x2="86.5424" y2="89.434" gradientUnits="userSpaceOnUse">
<stop stop-color="#B8CDE3"/>
<stop offset="1" stop-color="#D1E1F2"/>
</linearGradient>
<linearGradient id="paint14_linear_8_262" x1="80.8266" y1="87.2125" x2="86.629" y2="87.2125" gradientUnits="userSpaceOnUse">
<stop stop-color="#3978CC"/>
<stop offset="1" stop-color="#4EA1E6"/>
</linearGradient>
<linearGradient id="paint15_linear_8_262" x1="80.8266" y1="85.2097" x2="86.6261" y2="85.2097" gradientUnits="userSpaceOnUse">
<stop stop-color="#47A9FF"/>
<stop offset="1" stop-color="#61BFFF"/>
</linearGradient>
<linearGradient id="paint16_linear_8_262" x1="86.3571" y1="85.023" x2="79.3679" y2="85.023" gradientUnits="userSpaceOnUse">
<stop stop-color="#69C5FF"/>
<stop offset="1" stop-color="#52B4FF"/>
</linearGradient>
<linearGradient id="paint17_linear_8_262" x1="86.5244" y1="86.2932" x2="80.9465" y2="86.2932" gradientUnits="userSpaceOnUse">
<stop stop-color="#73CBFF"/>
<stop offset="0.4177" stop-color="#5FBCFF"/>
<stop offset="1" stop-color="#48AAFF"/>
</linearGradient>
<linearGradient id="paint18_linear_8_262" x1="86.3523" y1="85.2157" x2="79.5887" y2="85.2157" gradientUnits="userSpaceOnUse">
<stop stop-color="#69C5FF"/>
<stop offset="1" stop-color="#52B4FF"/>
</linearGradient>
<linearGradient id="paint19_linear_8_262" x1="70.8607" y1="112.852" x2="96.7166" y2="112.852" gradientUnits="userSpaceOnUse">
<stop stop-color="#389ED4"/>
<stop offset="1" stop-color="#5CB9F0"/>
</linearGradient>
<linearGradient id="paint20_linear_8_262" x1="70.8581" y1="100.466" x2="96.6602" y2="100.466" gradientUnits="userSpaceOnUse">
<stop stop-color="#001C2E"/>
<stop offset="0.1457" stop-color="#021F32"/>
<stop offset="0.2848" stop-color="#0A293D"/>
<stop offset="0.4213" stop-color="#163951"/>
<stop offset="0.5562" stop-color="#26506C"/>
<stop offset="0.6899" stop-color="#3C6D8F"/>
<stop offset="0.8229" stop-color="#5791B9"/>
<stop offset="0.9527" stop-color="#76BBEB"/>
<stop offset="1" stop-color="#82CCFF"/>
</linearGradient>
<linearGradient id="paint21_linear_8_262" x1="70.8973" y1="114.537" x2="96.6992" y2="114.537" gradientUnits="userSpaceOnUse">
<stop stop-color="#001C2E"/>
<stop offset="0.1457" stop-color="#021F32"/>
<stop offset="0.2848" stop-color="#0A293D"/>
<stop offset="0.4213" stop-color="#163951"/>
<stop offset="0.5562" stop-color="#26506C"/>
<stop offset="0.6899" stop-color="#3C6D8F"/>
<stop offset="0.8229" stop-color="#5791B9"/>
<stop offset="0.9527" stop-color="#76BBEB"/>
<stop offset="1" stop-color="#82CCFF"/>
</linearGradient>
<linearGradient id="paint22_linear_8_262" x1="70.9094" y1="119.224" x2="96.7113" y2="119.224" gradientUnits="userSpaceOnUse">
<stop stop-color="#001C2E"/>
<stop offset="0.1457" stop-color="#021F32"/>
<stop offset="0.2848" stop-color="#0A293D"/>
<stop offset="0.4213" stop-color="#163951"/>
<stop offset="0.5562" stop-color="#26506C"/>
<stop offset="0.6899" stop-color="#3C6D8F"/>
<stop offset="0.8229" stop-color="#5791B9"/>
<stop offset="0.9527" stop-color="#76BBEB"/>
<stop offset="1" stop-color="#82CCFF"/>
</linearGradient>
</defs>
</svg>
