<svg width="100" height="78" viewBox="0 0 100 78" fill="none" xmlns="http://www.w3.org/2000/svg">
<ellipse cx="50" cy="53" rx="50" ry="25" fill="#E8F1FF"/>
<path d="M44.316 20.37L45.5176 24.717C46.6493 28.812 47.214 30.8606 48.8776 31.7916C50.5413 32.725 52.653 32.1743 56.8763 31.0776L61.3563 29.911C65.5796 28.8143 67.6913 28.266 68.6526 26.6536C69.614 25.039 69.0493 22.9903 67.9153 18.8953L66.716 14.5506C65.5843 10.4533 65.0173 8.40464 63.356 7.47364C61.69 6.54031 59.5783 7.09097 55.355 8.18997L50.875 9.35197C46.6516 10.4486 44.54 10.9993 43.581 12.614C42.6196 14.2263 43.1843 16.275 44.316 20.37Z" fill="#3F86EE"/>
<path d="M27.313 12.243C27.3744 12.0214 27.479 11.8141 27.6206 11.6329C27.7623 11.4517 27.9383 11.3003 28.1385 11.1871C28.3387 11.074 28.5593 11.0015 28.7876 10.9737C29.0159 10.9458 29.2474 10.9633 29.469 11.025L33.4426 12.1264C34.4954 12.413 35.4562 12.9672 36.2314 13.7351C37.0066 14.5029 37.5699 15.4583 37.8666 16.5084L42.8856 34.6757L43.2543 35.952C44.7424 36.5005 45.9964 37.5444 46.8056 38.9084L47.5289 38.6844L68.2256 33.306C68.4481 33.2481 68.6798 33.2346 68.9075 33.2662C69.1351 33.2978 69.3544 33.374 69.5526 33.4903C69.7509 33.6067 69.9243 33.761 70.0629 33.9443C70.2015 34.1277 70.3027 34.3366 70.3606 34.559C70.4185 34.7815 70.4321 35.0132 70.4004 35.2409C70.3688 35.4685 70.2926 35.6878 70.1763 35.886C70.0599 36.0843 69.9057 36.2577 69.7223 36.3963C69.539 36.5349 69.3301 36.6361 69.1076 36.694L48.4879 42.0514L47.718 42.2894C47.704 45.2527 45.6576 47.964 42.5613 48.7667C38.8513 49.7327 35.0363 47.5954 34.0423 43.9974C33.0483 40.3994 35.2509 36.6964 38.9609 35.7327C39.1461 35.686 39.3304 35.6456 39.5139 35.6114L34.4926 17.4394C34.3568 16.9728 34.1029 16.5492 33.7555 16.2095C33.408 15.8698 32.9788 15.6256 32.5093 15.5004L28.5333 14.3967C28.3117 14.3354 28.1044 14.2312 27.9231 14.0898C27.7419 13.9484 27.5903 13.7727 27.4769 13.5727C27.3636 13.3727 27.2908 13.1523 27.2627 12.9242C27.2345 12.696 27.2516 12.4646 27.313 12.243Z" fill="#3F86EE"/>
</svg>
