<svg width="100" height="78" viewBox="0 0 100 78" fill="none" xmlns="http://www.w3.org/2000/svg">
<ellipse cx="50" cy="53" rx="50" ry="25" fill="#E8F1FF"/>
<path d="M63.2067 26.1333C62.67 25.4333 62.0167 24.8267 61.41 24.22C59.8467 22.82 58.0733 21.8167 56.58 20.3467C53.1033 16.94 52.3333 11.3167 54.55 7C52.3333 7.53667 50.3967 8.75 48.74 10.08C42.6967 14.9333 40.3167 23.4967 43.1633 30.8467C43.2567 31.08 43.35 31.3133 43.35 31.6167C43.35 32.13 43 32.5967 42.5333 32.7833C41.9967 33.0167 41.4367 32.8767 40.9933 32.5033C40.8609 32.3924 40.7501 32.2579 40.6667 32.1067C38.03 28.77 37.61 23.9867 39.3833 20.16C35.4867 23.3333 33.3633 28.7 33.6667 33.7633C33.8067 34.93 33.9467 36.0967 34.3433 37.2633C34.67 38.6633 35.3 40.0633 36 41.3C38.52 45.3367 42.8833 48.23 47.5733 48.8133C52.5667 49.4433 57.91 48.5333 61.7367 45.08C66.0067 41.2067 67.5 35 65.3067 29.68L65.0033 29.0733C64.5133 28 63.2067 26.1333 63.2067 26.1333ZM55.8333 40.8333C55.18 41.3933 54.1067 42 53.2667 42.2333C50.6533 43.1667 48.04 41.86 46.5 40.32C49.2767 39.6667 50.9333 37.6133 51.4233 35.5367C51.82 33.67 51.0733 32.13 50.77 30.3333C50.49 28.6067 50.5367 27.1367 51.1667 25.5267C51.61 26.4133 52.0767 27.3 52.6367 28C54.4333 30.3333 57.2567 31.36 57.8633 34.5333C57.9567 34.86 58.0033 35.1867 58.0033 35.5367C58.0733 37.45 57.2333 39.55 55.8333 40.8333Z" fill="#3F86EE"/>
</svg>
