<svg width="100" height="78" viewBox="0 0 100 78" fill="none" xmlns="http://www.w3.org/2000/svg">
<ellipse cx="50" cy="53" rx="50" ry="25" fill="#E8F1FF"/>
<path d="M50.6417 44.3334C51.1084 44.2945 51.5074 44.1094 51.8387 43.778C52.17 43.4467 52.3349 43.0485 52.3334 42.5834C52.3334 42.0389 52.1584 41.6018 51.8084 41.272C51.4584 40.9422 51.0112 40.796 50.4667 40.8334C48.8723 40.95 47.1806 40.5129 45.3917 39.522C43.6028 38.5311 42.475 36.7321 42.0084 34.125C41.9306 33.6972 41.7268 33.3472 41.397 33.075C41.0673 32.8028 40.6877 32.6667 40.2584 32.6667C39.7139 32.6667 39.2667 32.8712 38.9167 33.2804C38.5667 33.6895 38.45 34.1655 38.5667 34.7084C39.2278 38.2472 40.7834 40.775 43.2334 42.2917C45.6834 43.8084 48.1528 44.4889 50.6417 44.3334ZM50 51.3334C44.6723 51.3334 40.2296 49.5056 36.672 45.85C33.1145 42.1945 31.3349 37.6445 31.3334 32.2C31.3334 28.3111 32.8796 24.0824 35.972 19.5137C39.0645 14.945 43.7405 9.99602 50 4.66669C56.2612 9.99446 60.9379 14.9435 64.0304 19.5137C67.1228 24.0839 68.6683 28.3127 68.6667 32.2C68.6667 37.6445 66.8879 42.1945 63.3304 45.85C59.7728 49.5056 55.3294 51.3334 50 51.3334Z" fill="#3F86EE"/>
</svg>
