<svg width="36" height="36" viewBox="0 0 36 36" fill="none" xmlns="http://www.w3.org/2000/svg">
<path fill-rule="evenodd" clip-rule="evenodd" d="M13.8195 19.125C13.6935 20.286 13.3575 21.213 12.7725 22.035C11.988 23.1315 10.6725 24.156 8.4975 25.245C8.35797 25.3063 8.23236 25.3954 8.12829 25.5068C8.02422 25.6181 7.94387 25.7495 7.89211 25.8928C7.84034 26.0362 7.81826 26.1886 7.82718 26.3407C7.83611 26.4929 7.87586 26.6417 7.94402 26.778C8.01218 26.9143 8.10734 27.0354 8.22371 27.1338C8.34009 27.2322 8.47525 27.306 8.62099 27.3506C8.76674 27.3952 8.92003 27.4097 9.07156 27.3933C9.2231 27.3769 9.36971 27.3298 9.5025 27.255C11.8275 26.094 13.512 24.8685 14.6025 23.34C15.714 21.786 16.125 20.0355 16.125 18V11.25C16.125 10.5538 15.8484 9.88613 15.3562 9.39384C14.8639 8.90156 14.1962 8.625 13.5 8.625H7.5C6.80381 8.625 6.13613 8.90156 5.64384 9.39384C5.15156 9.88613 4.875 10.5538 4.875 11.25V16.5C4.875 17.949 6.051 19.125 7.5 19.125H13.8195ZM28.8195 19.125C28.6935 20.286 28.3575 21.213 27.7725 22.035C26.988 23.1315 25.6725 24.156 23.4975 25.245C23.358 25.3063 23.2324 25.3954 23.1283 25.5068C23.0242 25.6181 22.9439 25.7495 22.8921 25.8928C22.8403 26.0362 22.8183 26.1886 22.8272 26.3407C22.8361 26.4929 22.8759 26.6417 22.944 26.778C23.0122 26.9143 23.1073 27.0354 23.2237 27.1338C23.3401 27.2322 23.4752 27.306 23.621 27.3506C23.7667 27.3952 23.92 27.4097 24.0716 27.3933C24.2231 27.3769 24.3697 27.3298 24.5025 27.255C26.8275 26.094 28.512 24.8685 29.6025 23.34C30.714 21.786 31.125 20.0355 31.125 18V11.25C31.125 10.5538 30.8484 9.88613 30.3562 9.39384C29.8639 8.90156 29.1962 8.625 28.5 8.625H22.5C21.8038 8.625 21.1361 8.90156 20.6438 9.39384C20.1516 9.88613 19.875 10.5538 19.875 11.25V16.5C19.875 17.949 21.051 19.125 22.5 19.125H28.8195Z" fill="#3F86EE"/>
</svg>
