<svg width="512" height="512" viewBox="0 0 512 512" fill="none" xmlns="http://www.w3.org/2000/svg">
<g clip-path="url(#clip0_12_352)">
<path d="M110.755 -0.387678C112.703 -0.395756 112.703 -0.395756 114.691 -0.403998C118.248 -0.41829 121.805 -0.414259 125.362 -0.406831C129.217 -0.402061 133.072 -0.414643 136.927 -0.424848C144.46 -0.441967 151.994 -0.442891 159.528 -0.437635C165.658 -0.433579 171.787 -0.435054 177.916 -0.440384C179.229 -0.441506 179.229 -0.441506 180.569 -0.442651C182.347 -0.444183 184.126 -0.445721 185.905 -0.447266C202.553 -0.460967 219.201 -0.455571 235.849 -0.444081C251.045 -0.434153 266.241 -0.447087 281.437 -0.471015C297.08 -0.495458 312.722 -0.505001 328.364 -0.498363C337.13 -0.494882 345.897 -0.497027 354.663 -0.514614C362.126 -0.529401 369.589 -0.529887 377.052 -0.512543C380.852 -0.504083 384.651 -0.501757 388.451 -0.517194C420.272 -0.637077 448.361 4.62967 473 26C473.808 26.6639 474.617 27.3277 475.449 28.0117C495.815 45.3086 508.47 70.6598 512 97C512.268 101.425 512.279 105.836 512.267 110.267C512.272 111.562 512.277 112.857 512.281 114.19C512.293 117.755 512.293 121.319 512.291 124.883C512.29 128.739 512.301 132.594 512.311 136.45C512.327 143.994 512.333 151.538 512.334 159.082C512.335 165.221 512.339 171.359 512.346 177.498C512.363 194.934 512.372 212.37 512.371 229.806C512.371 231.214 512.371 231.214 512.371 232.65C512.371 233.59 512.371 234.53 512.37 235.498C512.37 250.713 512.389 265.929 512.417 281.144C512.446 296.798 512.459 312.453 512.458 328.107C512.457 336.883 512.463 345.659 512.484 354.435C512.502 361.91 512.507 369.385 512.493 376.86C512.487 380.666 512.486 384.472 512.504 388.278C512.662 424.928 504.873 454.671 478.449 481.565C453.009 506.756 421.633 512.644 387.121 512.523C383.244 512.514 379.366 512.528 375.489 512.539C367.917 512.556 360.346 512.553 352.774 512.541C346.614 512.532 340.455 512.531 334.295 512.535C333.414 512.536 332.534 512.536 331.627 512.537C329.837 512.538 328.048 512.54 326.259 512.541C309.525 512.552 292.791 512.539 276.057 512.518C261.734 512.5 247.411 512.503 233.088 512.521C216.409 512.543 199.731 512.551 183.052 512.539C181.27 512.538 179.488 512.537 177.705 512.535C176.829 512.535 175.952 512.534 175.049 512.533C168.904 512.53 162.76 512.536 156.616 512.545C149.116 512.556 141.617 512.553 134.118 512.532C130.299 512.522 126.482 512.517 122.664 512.531C91.7899 512.63 64.1687 507.678 40.0001 487C39.2021 486.335 38.4042 485.67 37.5821 484.984C16.9522 467.201 3.27948 442.088 5.69224e-05 415C-0.662921 405.408 -0.556749 395.784 -0.522839 386.174C-0.513676 382.322 -0.527816 378.47 -0.538761 374.618C-0.556432 367.098 -0.552759 359.578 -0.541111 352.058C-0.532032 345.94 -0.530872 339.822 -0.535206 333.704C-0.536126 332.392 -0.536122 332.392 -0.53706 331.053C-0.538339 329.276 -0.539637 327.498 -0.540951 325.72C-0.552323 309.099 -0.539297 292.477 -0.51775 275.856C-0.499879 261.63 -0.502992 247.404 -0.521427 233.178C-0.542889 216.61 -0.551228 200.042 -0.538975 183.473C-0.537701 181.703 -0.536447 179.932 -0.535206 178.162C-0.534589 177.291 -0.533973 176.42 -0.533337 175.523C-0.5299 169.42 -0.535676 163.317 -0.545124 157.215C-0.556404 149.767 -0.55318 142.318 -0.532002 134.87C-0.521572 131.079 -0.51723 127.287 -0.530598 123.495C-0.633223 91.6982 4.64688 63.6194 26.0001 39C26.6639 38.1918 27.3278 37.3835 28.0118 36.5508C39.9015 22.5512 55.3566 12.6581 72.4376 6.1875C73.5265 5.77033 73.5265 5.77033 74.6375 5.34473C86.4397 1.10836 98.2802 -0.451144 110.755 -0.387678Z" fill="#3F86EE"/>
<path d="M159.391 175.902C160.447 175.904 160.447 175.904 161.526 175.907C163.767 175.912 166.008 175.925 168.25 175.938C169.773 175.943 171.297 175.947 172.82 175.951C176.547 175.962 180.273 175.979 184 176C184.014 176.574 184.029 177.149 184.044 177.741C184.119 180.369 184.216 182.997 184.312 185.625C184.346 186.98 184.346 186.98 184.381 188.363C184.591 193.607 185.069 197.476 188 202C192.692 206.235 195.503 207.304 201.684 207.215C206.381 206.779 209.17 204.897 212.312 201.5C217.662 193.575 215.448 187.045 216 176C242.4 176 268.8 176 296 176C296.33 182.6 296.66 189.2 297 196C299.806 201.611 301.527 204.264 307 207C312.683 207.591 317.148 207.272 322 204C325.769 199.926 327.072 196.812 327.316 191.332C327.358 190.439 327.4 189.547 327.443 188.627C327.483 187.698 327.522 186.769 327.562 185.813C327.627 184.402 327.627 184.402 327.693 182.963C327.799 180.642 327.901 178.321 328 176C333.316 175.875 338.631 175.785 343.948 175.725C345.751 175.7 347.554 175.667 349.357 175.623C362.131 175.321 372.332 175.833 383.281 183.211C392.106 191.818 398.954 200.464 399.456 213.379C399.45 215.366 399.419 217.353 399.367 219.34C399.352 220.478 399.338 221.615 399.322 222.787C399.004 241.006 398.082 259.218 397.265 277.419C396.836 287.025 396.419 296.632 396.008 306.238C395.939 307.827 395.939 307.827 395.87 309.447C395.27 323.477 394.775 337.505 394.43 351.543C394.39 353.098 394.351 354.653 394.311 356.208C394.167 361.928 394.024 367.649 393.928 373.37C393.863 377.169 393.777 380.967 393.687 384.766C393.677 385.843 393.667 386.919 393.656 388.029C393.328 400.341 389.432 411.192 380.93 420.191C372.137 428.509 361.876 432.318 349.76 432.267C348.557 432.274 348.557 432.274 347.33 432.281C344.657 432.294 341.984 432.292 339.312 432.291C337.389 432.297 335.467 432.303 333.544 432.311C328.331 432.329 323.118 432.333 317.905 432.335C314.645 432.336 311.384 432.34 308.123 432.346C296.737 432.364 285.35 432.372 273.964 432.371C263.368 432.369 252.773 432.391 242.177 432.422C233.066 432.448 223.955 432.459 214.844 432.458C209.409 432.457 203.973 432.463 198.538 432.484C193.422 432.504 188.306 432.504 183.19 432.489C181.32 432.487 179.449 432.492 177.579 432.504C162.222 432.597 149.814 430.789 138 420C128.369 409.205 126.397 397.235 125.995 383.233C125.937 381.671 125.877 380.108 125.816 378.546C125.655 374.329 125.517 370.111 125.383 365.892C125.238 361.441 125.073 356.99 124.91 352.539C124.64 345.049 124.383 337.558 124.135 330.067C123.819 320.54 123.483 311.014 123.14 301.487C122.841 293.21 122.552 284.932 122.264 276.654C122.173 274.04 122.081 271.425 121.989 268.811C121.421 252.608 120.896 236.401 120.739 220.187C120.718 219.073 120.698 217.958 120.676 216.81C120.638 205.448 124.108 195.526 131.816 186.988C139.857 179.5 148.502 175.859 159.391 175.902Z" fill="#F3F3F3"/>
<path d="M301 95C316.513 108.066 325.383 124.92 328 145C328.264 149.042 328.304 153.067 328.301 157.117C328.305 158.218 328.309 159.319 328.314 160.453C328.319 162.757 328.32 165.061 328.316 167.365C328.313 170.887 328.336 174.408 328.361 177.93C328.364 180.18 328.364 182.43 328.363 184.68C328.373 185.727 328.382 186.774 328.391 187.852C328.352 194.092 327.895 198.827 323.5 203.645C318.093 207.855 313.721 208.829 307 208C301.696 205.298 297.902 201.705 296 196C296 189.4 296 182.8 296 176C269.6 176 243.2 176 216 176C216 182.6 216 189.2 216 196C213.003 201.994 212.007 203.349 207 207C202.93 208.357 199.256 208.525 195 208C189.696 205.298 185.902 201.705 184 196C183.898 194.413 183.852 192.822 183.839 191.232C183.829 190.263 183.82 189.293 183.81 188.295C183.806 187.245 183.801 186.195 183.797 185.113C183.791 184.023 183.785 182.934 183.78 181.811C183.77 179.495 183.764 177.179 183.76 174.863C183.75 171.371 183.719 167.88 183.688 164.389C183.537 133.562 183.537 133.562 190.75 120.563C191.276 119.569 191.276 119.569 191.813 118.554C194.692 113.253 197.936 108.473 202 104C202.654 103.255 203.307 102.51 203.98 101.742C209.844 95.4411 216.495 91.1436 224 87C224.749 86.5772 225.498 86.1544 226.27 85.7188C249.775 73.8535 280.702 79.5284 301 95Z" fill="#2E496A"/>
<path d="M276.57 117.32C284.698 122.362 290.394 129.186 294 138C296 148 296 148 296 176C269.6 176 243.2 176 216 176C216 135.633 216 135.633 227.109 123.742C241.322 110.461 259.168 108.381 276.57 117.32Z" fill="#3F86EE"/>
</g>
<defs>
<clipPath id="clip0_12_352">
<rect width="512" height="512" fill="white"/>
</clipPath>
</defs>
</svg>
